<?xml version="1.0" encoding="utf-8"?>
<!-- Generator: Adobe Illustrator 25.0.1, SVG Export Plug-In . SVG Version: 6.00 Build 0)  -->
<svg version="1.0" id="Layer_1" xmlns="http://www.w3.org/2000/svg" xmlns:xlink="http://www.w3.org/1999/xlink" x="0px" y="0px"
	 viewBox="0 0 917.6 396.8" style="enable-background:new 0 0 917.6 396.8;" xml:space="preserve">
<style type="text/css">
	.st0{fill:#212121;}
	.st1{fill:#FFFFFF;}
	.st2{fill:none;}
	.st3{fill:#E30613;}
	.st4{fill:#F0151F;}
</style>
<path class="st0" d="M725.7,227.2l5.9-11.6c-3.9-5.1-8.8-8.9-14.2-10.7l-4.7,12.4h-7.1l-4.7-12.4c-5.4,1.9-10.3,5.6-14.2,10.7
	l5.9,11.6l-3.5,8l-10.6-0.8c-0.7,3.4-1.1,7-1.1,10.7s0.4,7.3,1.1,10.7l10.6-0.8l3.5,8l-5.9,11.6c3.9,5.1,8.8,8.9,14.2,10.7l4.7-12.4
	h7.1l4.7,12.4c5.4-1.9,10.3-5.6,14.2-10.7l-5.9-11.6l3.5-8l10.6,0.8c0.7-3.4,1.1-7,1.1-10.7s-0.4-7.3-1.1-10.7l-10.6,0.8
	L725.7,227.2z M709.1,258.9c-5.8,0-10.6-6.2-10.6-13.9s4.8-13.9,10.6-13.9c5.8,0,10.6,6.2,10.6,13.9S714.9,258.9,709.1,258.9z"/>
<path class="st2" d="M901.7,148.7c-2.2,10.3-5.6,17.7-10.3,22.8c-4.1,4.4-9.2,7.9-15,10.4c-0.9,0.4-1.8,0.8-2.8,1.1v-8.7
	c0-0.8,0-1.5,0-2.2c3.9-1.9,7.5-4.3,10.5-7.5c3.7-4,6.2-10.5,7.8-18c4.3-20.1,2.6-47.5,2.4-54c-0.3-8.9-7.9-52.1-33.2,0
	c-25.3,52.1-75.1,72-75.1,72s8.9,3.6,21.5,6.9v10.3c-14.4-3.6-24.7-7.8-25.3-8c-3.8-1.5-6.3-5.2-6.3-9.3c0-4.1,2.5-7.8,6.3-9.3
	c0.4-0.2,46.6-19.3,69.8-67.1c10.4-21.4,19.6-30.9,30-30.9c17.3,0,21.9,25.2,22.1,35c0,0.7,0.1,1.6,0.1,2.7
	C904.8,105.3,905.8,129.5,901.7,148.7z"/>
<path class="st2" d="M852.8,177.1v10c-2,0.1-4.1,0.2-6.2,0.2c-5.7,0-11.9-0.5-18.3-1.4v-10.1C836.3,177,844.8,177.6,852.8,177.1z"/>
<path class="st3" d="M891.9,146.6c-1.6,7.5-4.1,14-7.8,18c-3,3.2-6.5,5.6-10.5,7.5c0.3-6.2,2.1-10.3,11.8-10.3v-2.5l-32.6-0.3v18
	c-8.1,0.6-16.5,0-24.6-1.2v-1.6c0-7.5,1.4-12.2,12.1-12.2v-3h-32.9v12.5c-12.7-3.4-21.5-6.9-21.5-6.9s49.8-19.9,75.1-72
	c25.3-52.1,32.9-8.9,33.2,0C894.5,99.1,896.2,126.5,891.9,146.6z"/>
<path class="st3" d="M891.9,146.6c-1.6,7.5-4.1,14-7.8,18c-3,3.2-6.5,5.6-10.5,7.5c0.3-6.2,2.1-10.3,11.8-10.3v-2.5l-32.6-0.3v18
	c-8.1,0.6-16.5,0-24.6-1.2v-1.6c0-7.5,1.4-12.2,12.1-12.2v-3h-32.9v12.5c-12.7-3.4-21.5-6.9-21.5-6.9s49.8-19.9,75.1-72
	c25.3-52.1,32.9-8.9,33.2,0C894.5,99.1,896.2,126.5,891.9,146.6z"/>
<g>
	<path class="st0" d="M858.9,77.3c-4.1,6.1-8.7,11.9-13.4,17.7c-4.7,5.7-9.7,11.2-14.8,16.6c-5.2,5.3-10.6,10.5-16.3,15.3
		c-5.7,4.8-11.8,9.3-18.2,13.4c-6.5,4-13.4,7.5-20.8,10.2c-7.4,2.5-14.9,4.2-22.4,5.4c-15.1,2.3-30.5,2.5-45.7,1
		c-7.6-0.7-15.2-1.9-22.6-3.5c-7.5-1.6-14.9-3.6-22.1-6c-7.3-2.4-14.4-5.1-21.4-8.3c-7-3.2-13.8-6.6-20.4-10.4
		c-13.3-7.6-25.8-16.5-37.4-26.5c-5.8-5-11.4-10.2-16.8-15.6l-3.7-3.7l-3.8-3.5c-1.3-1.1-2.6-2.2-3.9-3.3c-1.3-1.1-2.6-2.2-4-3.2
		c-21.6-16.7-48.3-25.9-75.8-28.2c-13.8-1.2-27.8-0.9-41.7,0.7c-13.9,1.6-27.8,4.5-41.4,8.2c-13.6,3.8-27,8.6-39.7,14.5
		c-3.2,1.5-6.3,3-9.3,4.6c-1.5,0.8-2.9,1.6-4.5,2.5c-1.5,0.9-3,1.8-4.6,2.7c-6,3.6-11.9,7.5-17.7,11.7c-5.8,4.1-11.5,8.5-17.2,13
		c-5.8,4.5-11.5,9.1-17.6,13.6c-12,9.2-25.4,17.5-39.5,24l-1.3,0.6l-1.1,0.2c-12.7,2.3-25.2,3.5-37.6,4.7
		c-12.4,1.2-24.6,2.3-36.7,3.7c-6.1,0.7-12.1,1.5-18.1,2.4c-6,1-11.9,2-17.8,3.3c-11.8,2.5-23.3,5.8-34.4,10.1
		c-5.5,2.2-10.9,4.7-16.1,7.5l-3.9,2.2c-0.7,0.4-1.3,0.7-1.9,1.1c-0.6,0.4-1.2,0.7-1.8,1.1c-2.4,1.6-4.8,3.2-7,5.1
		c-9,7.3-16.6,16.6-22.6,27c-6,10.4-10.7,21.7-14.1,33.4c-3.4,11.7-5.9,23.9-7,36.2c-0.3-6.2-0.1-12.4,0.4-18.6
		c0.5-6.2,1.3-12.4,2.4-18.6c2.3-12.3,5.9-24.5,11.3-36.1c2.7-5.8,5.9-11.4,9.6-16.7c3.7-5.3,8-10.3,12.8-14.8
		c2.4-2.3,4.9-4.4,7.5-6.4c0.7-0.5,1.3-1,2-1.5c0.7-0.5,1.4-1,2-1.4l4.1-2.6c5.5-3.4,11.2-6.4,17-9.1c5.8-2.8,11.8-5.1,17.8-7.2
		c6-2.1,12.1-4,18.3-5.6c12.3-3.3,24.7-5.6,37.1-7.7c12.4-2,24.8-3.6,37-5.2c12.2-1.6,24.3-3.3,35.9-5.7l-2.4,0.8
		c6.2-3.1,12.2-6.6,18-10.5c5.8-3.9,11.4-8.1,17-12.5c11.2-8.9,22.4-18.8,34.7-27.8c6.1-4.5,12.4-8.9,19-12.9c1.6-1,3.3-2,4.9-3
		c0.8-0.5,1.7-1,2.5-1.5c0.9-0.5,1.7-1,2.6-1.5c3.5-1.9,6.9-3.7,10.4-5.3c14-6.6,28.4-11.8,43.1-16c14.7-4.2,29.8-7.2,45.1-8.9
		c7.7-0.8,15.4-1.4,23.1-1.5c7.7-0.1,15.5,0.2,23.3,1c15.5,1.5,31,4.9,45.8,10.6c14.8,5.6,28.7,13.6,41,23.5c1.6,1.2,3,2.5,4.6,3.8
		c1.5,1.3,2.9,2.6,4.4,3.9c1.4,1.4,2.8,2.7,4.2,4.1l4,4.2c4.8,5.2,9.9,10.2,15.1,14.9c5.2,4.8,10.7,9.3,16.3,13.5
		c5.6,4.3,11.4,8.3,17.4,12c12,7.5,24.7,13.8,37.9,18.8c13.2,5,27,8.6,41,10.7c7,1.1,14.1,1.7,21.2,2c7.1,0.3,14.2,0.1,21.2-0.5
		c7-0.7,14-1.8,20.7-3.6c6.6-1.8,13.1-4.5,19.5-7.7c6.3-3.3,12.4-7.1,18.4-11.2c6-4.1,11.7-8.6,17.3-13.3
		C838.4,98.5,849,88.3,858.9,77.3z"/>
</g>
<g>
	<path class="st0" d="M99,312.2h0.5l0.3,0.3v34.2c0,2.6-0.6,5.2-1.9,7.8h7l0.3,0.3v8l-0.3,0.3h-9.3l-0.3-0.3V358
		c-3.4,3.4-7.3,5.1-11.8,5.1H52.1c-1.6,0-4.2-1.2-7.7-3.6c-4.1-3.8-6.2-7.9-6.2-12.2v-11.1l0.3-0.3h0.1c3.9,0,6.5,1.9,7.7,5.8l0.1,3
		v2.1c0,3.1,1.8,5.6,5.5,7.4l1.8,0.3l29.4,0.1c3.2,0,5.7-1.5,7.4-4.4c0.6-1.1,1-2.1,1-3.2v-26c0-4.3,1.5-7,4.4-8.1
		C96.8,312.4,97.8,312.2,99,312.2z M71.1,334.1h6l0.3,0.3c-0.5,2.7-1.6,4.1-3.3,4.1h-2.5c-1.8,0.2-2.7,1.1-2.7,2.7l-0.1,1.8h5.8
		c1.6,0,2.6,1.3,2.9,4v0.7l-0.1,0.1H60.9c-0.2,0-0.3-0.1-0.3-0.4c0-2.9,0.9-4.4,2.7-4.4h0.4v-1.4c0-3.7,1.7-6.2,5.1-7.3
		C69.3,334.1,70,334.1,71.1,334.1z"/>
	<path class="st0" d="M104,354.7h15.5l0.3,0.3v7.8l-0.3,0.3H104l-0.3-0.3v-7.8L104,354.7z"/>
	<path class="st0" d="M138.9,336h0.5l0.3,0.3V347c0,4.4-1.9,8.4-5.8,12.1c-3,2.7-6.4,4-10.4,4h-4.1l-0.3-0.3v-8l0.3-0.3h3.6
		c4.1,0,6.8-2,8.4-6l0.3-3.2v-2.5c0-3.2,1.9-5.4,5.6-6.7L138.9,336z M133.1,365.5l0.1,0.1v1.2c0,4-0.9,6.5-2.7,7.7
		c-1.4,1.2-3.3,1.8-5.6,1.8l-0.3-0.3v-3c0-3.2,1.6-5.4,4.8-6.9C130.5,365.7,131.7,365.5,133.1,365.5z"/>
	<path class="st0" d="M161.7,363.3c-0.2,2.1-1.8,4.8-4.9,8.2c-3.4,3.2-7,4.8-10.7,4.8h-11.3l-0.3-0.3v-0.5c0-3.6,1.9-6,5.8-7.3
		l2.7-0.1h2.6c2.1,0,4.1-1.2,6-3.6c0.9-1.4,1.4-3,1.4-4.8v-18.3c0-3.4,1.8-5.8,5.5-7.3l3-0.4l0.1,0.1v20.5
		C161.9,358.3,161.9,361.2,161.7,363.3z"/>
	<path class="st0" d="M169.2,334.2h17.3c5,0,9.5,2.6,13.3,7.8c1.6,3.1,2.5,5.9,2.5,8.4v12.4L202,363h-32.8l-0.3-0.3v-0.1
		c0-3.7,1.7-6.3,5.1-7.7c0.7-0.3,1.6-0.4,2.6-0.4H194v-4c0-2.8-1.6-5.2-4.9-7c-1.1-0.5-2.4-0.8-3.8-0.8H176c-3.2,0-5.5-1.8-6.9-5.5
		l-0.3-2.5v-0.3L169.2,334.2z"/>
	<path class="st0" d="M260.9,318.9c5.5,0,10.3,2.5,14.3,7.6c1.8,3.1,2.7,6,2.7,8.7v11.1c0,2.9-0.7,5.7-2.1,8.2h7l0.3,0.3v8l-0.3,0.3
		h-10.6l-0.3-0.3v-3.6h-0.1c-2.9,2.6-6.4,3.8-10.4,3.8h-21.8c-5,0-9.2-2.6-12.8-7.7c-1.8-3.5-2.7-6.8-2.7-9.8v-11l0.3-0.3h0.1
		c3.9,0,6.5,1.9,7.7,5.8l0.1,3v2.3c0,2.7,1.1,5.2,3.2,7.3c1.6,1.1,3,1.6,4.4,1.6h21.7c2.1,0,3.8-0.6,5.1-1.9h-7
		c-4.7,0-9-2.4-12.9-7.3c-1.8-2.8-2.7-5.9-2.7-9.2v-0.3c0-5.7,2.6-10.4,7.8-14C254.8,319.9,257.8,318.9,260.9,318.9z M251.4,305.9
		c4,0,6.7,1.8,8,5.4c0.3,0.6,0.4,1.8,0.4,3.4v1.8l-0.3,0.3c-3.8,0-6.5-1.6-7.8-4.8c-0.4-0.8-0.5-1.8-0.5-3v-2.7L251.4,305.9z
		 M252.6,335.3v1.1c0,2.8,1.6,5.2,4.7,7.1c1.1,0.5,2.1,0.7,2.7,0.7h9.2v-8.8c0-3-1.6-5.5-4.8-7.4c-0.7-0.4-1.9-0.6-3.6-0.8
		c-3.3,0-5.9,1.8-7.7,5.5C252.8,333.8,252.6,334.7,252.6,335.3z M270.5,305.9h0.1l0.3,0.3v3.4c0,2.9-1.6,5.1-4.8,6.6
		c-1,0.3-2.2,0.5-3.6,0.5l-0.1-0.1v-3c0-3.7,1.9-6.2,5.8-7.4L270.5,305.9z"/>
	<path class="st0" d="M286.8,354.7h15.5l0.3,0.3v7.8l-0.3,0.3h-15.5l-0.3-0.3v-7.8L286.8,354.7z"/>
	<path class="st0" d="M322.3,335.8h0.7l0.3,0.3v8.4c0,4.3-0.7,7.6-2.1,9.9h7l0.3,0.3v8.1l-0.3,0.3h-10.6l-0.3-0.3v-3.7
		c-2.9,2.7-6.8,4-11.8,4h-2.6l-0.3-0.3v-8.1l0.3-0.3h4.3c3.2,0,5.7-1.9,7.4-5.6c0.3-1,0.4-1.9,0.4-2.9v-3c0-3.4,2-5.7,5.9-6.9
		L322.3,335.8z M313.9,365.6l0.1,0.1v3c0,3.6-1.8,6.1-5.4,7.4l-2.1,0.3h-0.8l-0.3-0.3v-3.4c0-2.9,1.8-5.2,5.4-6.7L313.9,365.6z
		 M317.3,365.6c3.8,0,6.5,1.8,8,5.5l0.3,1.9v3.2l-0.3,0.3h-0.7c-3.5,0-6-1.8-7.3-5.4c-0.2-0.4-0.3-1.1-0.3-2.2v-3L317.3,365.6z"/>
	<path class="st0" d="M327.3,354.7h15.5l0.3,0.3v7.8l-0.3,0.3h-15.5l-0.3-0.3v-7.8L327.3,354.7z"/>
	<path class="st0" d="M362.8,318.9h1.8c1.7,0,3.8,0.5,6.3,1.5c6.4,3.7,9.6,8.7,9.6,15.1v10.9c0,6.2-3,11.1-9.1,14.8
		c-2.1,1.1-4.5,1.6-7.3,1.6H358l-16.5,0.1l-0.1-0.1v-8.2l0.3-0.3h21.3c3,0,5.1-0.6,6.2-1.9h-3.8c-6.1,0-10.5-1.5-13-4.5
		c-2.3-1.5-4-4.4-5.2-8.7l-0.3-2.5v-2.2c0-3.6,1.6-7.2,4.9-10.9C355.3,320.5,359,318.9,362.8,318.9z M355.4,335v1.5
		c0,2.3,1.2,4.4,3.7,6.3c1.3,0.9,3,1.4,5.2,1.4h7.7v-6.6c0-4.6-1.3-7.6-3.8-9.1c0-0.4-1.3-0.9-3.8-1.4h-1.4c-2.5,0-4.7,1.5-6.6,4.4
		C355.7,332.8,355.4,334,355.4,335z M372.3,305.8l0.3,0.3v3.2c0,3.5-2,5.9-5.9,7.1l-2.5,0.3l-0.1-0.1v-3.6c0-2.4,1.3-4.5,3.8-6.2
		C369.2,306.1,370.6,305.8,372.3,305.8z"/>
	<path class="st0" d="M402.5,363.3c-0.2,2.1-1.8,4.8-4.9,8.2c-3.4,3.2-7,4.8-10.7,4.8h-11.3l-0.3-0.3v-0.5c0-3.6,1.9-6,5.8-7.3
		l2.7-0.1h2.6c2.1,0,4.1-1.2,6-3.6c0.9-1.4,1.4-3,1.4-4.8v-18.3c0-3.4,1.8-5.8,5.5-7.3l3-0.4l0.1,0.1v20.5
		C402.7,358.3,402.7,361.2,402.5,363.3z"/>
</g>
<path class="st0" d="M412.6,70.8c-32.4,8.6-59.2,22.6-75.1,36.9c-5.7,5.1-2.1,14.4,5.5,14.4h155.6c4.6,0,8.3,3.7,8.3,8.3l0,0H293.6
	c0,0,74.4-84.3,167.3-71.1"/>
<path class="st0" d="M282.8,200.2c-8,0-9.4,5-9.4,12.4v24.9c0,25.7-11.3,41.4-35.4,41.4c-4.4,0-10.2-1.1-14.9-3.6
	c-4.7-2.2-9.4-5.8-10.8-10.5c-5.5,8.6-14.9,12.7-24.6,13.3c-9.9,0.6-19.6-2.8-26-11.3c0,0.3-0.3,0.6-0.6,0.8
	c-8,8.8-19.1,10.2-32.3,11H106c-13.5,0-24.3-4.7-31.8-12.4c-7.7-7.5-11.9-18-11.9-29.3s3.9-21.5,10.8-28.7
	c6.9-7.2,17.4-11.3,30.9-11c14.1,0.3,19.9,6.1,22.9,12.4c-4.1-3.6-10.2-5-17.1-5c-18.5,0-26.5,12.7-26.5,32.3s8.3,34.8,26.2,34.8
	h16.6c5.8,0,11.9-1.7,16.6-6.1c4.4-4.4,7.5-11.3,8.3-21.5v-47h32.6v2.8h-2.8c-8,0-9.4,4.7-9.7,18.8v38.1c0,8.6,6.6,15.5,15.2,15.5
	c8.6,0,14.6-6.9,15.5-15.5v-59.7h32.6v2.8H232c-8.6,0-9.7,5-9.7,12.4v46.1c1.1,7.5,7.5,13.3,15.2,13.3c8.6,0,15.5-6.6,15.5-15.2
	v-59.4h32.6v3H282.8z"/>
<path class="st0" d="M364,207.7c7.5,7.7,11.6,18.2,11.6,29.6v6.4c0.8,18.8,10.2,28.2,26.5,28.2h4.1v6.9h-15.5
	c-7.5-0.3-11.3-1.9-17.1-6.6c-3-2.2-5.2-4.7-7.2-8.3c-7.5,9.1-19.1,14.9-34.2,14.9h-32.9v-6.9h29.3c8.8,0,15.5-3.6,19.9-9.9
	c4.4-6.4,6.4-14.9,6.4-24.6c0-19.9-8.6-32.6-26.5-32.6c-13,0-22.4,4.4-23.5,19.1h-3.6c0-13,0-18,4.7-22.1c4.4-4.4,13.3-6.1,26.2-6.1
	C345.7,195.5,356.5,200.2,364,207.7z"/>
<path class="st0" d="M449.9,200.8c-8,0-9.4,5-9.4,12.4v58.6h37v6.9h-82.3v-6.9h24.6V198h32.9v2.8H449.9z M440.5,171.8
	c0,5.5-4.7,10.2-10.5,10.2c-5.5,0-10.2-4.7-10.2-10.2c0-5.8,4.7-10.5,10.2-10.5C435.8,161.3,440.5,166,440.5,171.8z"/>
<path class="st0" d="M642.1,278.6H466.4v-6.9h35.9c-3.3-1.9-5.8-4.7-8-7.5c-2.8-4.1-4.1-8.6-4.1-13.8c0-16.8,15.5-27.9,39.8-27.9
	l1.4,0.3v-20.4c0-6.9-1.1-11.9-8.8-11.9H520v-2.2l31.2-0.3v13.3c4.4-4.1,13.8-5.8,25.7-5.8c26,0,41.2,18,41.2,39.8
	c0,14.4-6.4,28.4-18.2,36.5h42.3V278.6z M531.3,228.7c-17.7-0.6-27.3,6.4-27.3,22.1c0,11.3,6.4,21,18.2,21h9.1V228.7z M573.3,271.7
	c17.4,0,25.4-18,25.4-36.5s-10.2-31.2-25.4-31.2c-11.3,0-20.4,3.9-22.1,15.5v52.2H573.3z"/>
<path class="st0" d="M744.8,210.4c8.6,8.6,12.2,19.3,13,31.2v3.6c0.3,10.8,2.8,17.1,6.4,21.3c3.6,4.1,8.6,5.2,14.4,5.2H789v6.9h-18
	c-5.5-0.8-10.5-1.9-13.8-5.2c-1.9-1.7-3.3-3.6-4.7-5.8c-4.7,8.8-11.9,16.3-24,20.4c-6.4,2.2-13.5,3.3-21.3,3.3
	c-14.4,0-26.5-5.2-34.2-13c-3.3-3.3-5.8-6.9-7.7-10.5c-2.5,4.7-6.1,7.7-10.5,9.1c-2.5,0.8-5,1.4-7.7,1.7h-16v-6.9h8.6
	c5.5,0,10.2-1.1,13.8-4.7c3.6-3.6,5.8-9.7,6.6-19.3v-3.3c0-14.6,4.1-25.4,13.8-34.2c8-8,21-12.7,36.2-12.7
	C724.4,197.4,737.1,202.7,744.8,210.4z M688.5,214.8c-4.7,6.9-7.5,14.4-7.5,26.8c0,14.1,3.3,22.1,8.6,30.1
	c5.2,7.7,11.9,11.6,20.4,11.6c8.6,0,15.5-3.3,20.4-10.2c5.2-6.6,6.6-13.8,6.6-26c0-14.1-2.2-22.6-7.5-30.4
	c-5.2-8-11.9-11.9-20.4-11.9C700.4,204.9,693.5,208.2,688.5,214.8z"/>
<path class="st0" d="M821.1,184.8c-4.8-0.9-9.3-1.9-13.6-3v62c-0.8,10.2-3.9,17.1-8.3,21.5c-4.4,4.4-10.8,6.4-16.6,6.4H778v6.9h15.7
	c9.9,0,18.2-3.9,24.6-10.5c6.4-6.6,10-16,10-27.9v-54.3C825.9,185.6,823.5,185.2,821.1,184.8z"/>
<path class="st4" d="M840.4,159.1v3c-10.8,0-12.1,4.7-12.1,12.2v1.6c-1.8-0.3-3.6-0.6-5.4-0.9c-5.5-1-10.7-2.2-15.4-3.5v-12.5H840.4
	z"/>
<path class="st2" d="M828.3,175.8v10.1c-2.3-0.3-4.7-0.7-7.2-1.1c-4.8-0.9-9.3-1.9-13.6-3v-10.3c4.7,1.2,9.9,2.5,15.4,3.5
	C824.7,175.3,826.4,175.6,828.3,175.8z"/>
<path class="st0" d="M855.5,186.9c-0.9,0.1-1.8,0.2-2.7,0.2v91.5h20.7V183C868.2,185,862.2,186.3,855.5,186.9z"/>
<path class="st4" d="M885.4,159.3v2.5c-9.7,0-11.6,4-11.8,10.3c-0.4,0.2-0.8,0.4-1.3,0.6c-5.4,2.4-11.4,3.7-17.7,4.3
	c-0.6,0-1.2,0.1-1.8,0.1v-18L885.4,159.3z"/>
<path class="st2" d="M873.6,172.1c0,0.7,0,1.4,0,2.2v8.7c-5.3,2-11.4,3.3-18,3.9c-0.9,0.1-1.8,0.2-2.7,0.2v-10
	c0.6,0,1.2-0.1,1.8-0.1c6.3-0.6,12.3-1.9,17.7-4.3C872.7,172.5,873.2,172.3,873.6,172.1z"/>
</svg>
